HIERARCHY
ROOT hip
{
	OFFSET 0.000000 0.000000 0.000000 
	CHANNELS 6 Xposition Yposition Zposition Xrotation Zrotation Yrotation
	JOINT abdomen
	{
		OFFSET 0.000000 3.402643 0.000000 
		CHANNELS 3 Xrotation Zrotation Yrotation
		JOINT chest
		{
			OFFSET 0.000000 8.438565 -0.680529 
			CHANNELS 3 Xrotation Zrotation Yrotation
			JOINT neck
			{
				OFFSET 0.000000 10.207942 -0.272212 
				CHANNELS 3 Xrotation Zrotation Yrotation
				JOINT head
				{
					OFFSET 0.000000 3.130431 0.000000 
					CHANNELS 3 Xrotation Zrotation Yrotation
					End Site
					{
						OFFSET 0.000000 3.130435 0.000000 
					}
				}
			}
			JOINT lCollar
			{
				OFFSET 3.470700 6.669187 -0.816635 
				CHANNELS 3 Yrotation Zrotation Xrotation
				JOINT lShldr
				{
					OFFSET 3.198488 0.000000 0.000000 
					CHANNELS 3 Zrotation Yrotation Xrotation
					JOINT lForeArm
					{
						OFFSET 10.139888 0.000000 0.000000 
						CHANNELS 3 Yrotation Zrotation Xrotation
						JOINT lHand
						{
							OFFSET 8.370511 0.000000 0.000000 
							CHANNELS 3 Zrotation Yrotation Xrotation
							End Site
							{
								OFFSET 4.083176 0.000000 0.000000 
							}
						}
					}
				}
			}
			JOINT rCollar
			{
				OFFSET -3.470700 6.669187 -0.816635 
				CHANNELS 3 Yrotation Zrotation Xrotation
				JOINT rShldr
				{
					OFFSET -3.198488 0.000000 0.000000 
					CHANNELS 3 Zrotation Yrotation Xrotation
					JOINT rForeArm
					{
						OFFSET -10.139888 0.000000 0.000000 
						CHANNELS 3 Yrotation Zrotation Xrotation
						JOINT rHand
						{
							OFFSET -8.370511 0.000000 0.000000 
							CHANNELS 3 Zrotation Yrotation Xrotation
							End Site
							{
								OFFSET -4.083176 0.000000 0.000000 
							}
						}
					}
				}
			}
		}
	}
	JOINT lThigh
	{
		OFFSET 5.308129 -1.633274 1.361059 
		CHANNELS 3 Xrotation Zrotation Yrotation
		JOINT lShin
		{
			OFFSET -2.041588 -20.007561 0.000000 
			CHANNELS 3 Xrotation Zrotation Yrotation
			JOINT lFoot
			{
				OFFSET 0.000000 -19.190928 -1.224953 
				CHANNELS 3 Xrotation Yrotation Zrotation
				End Site
				{
					OFFSET 0.000000 -2.449906 4.627600 
				}
			}
		}
	}
	JOINT rThigh
	{
		OFFSET -5.308129 -1.633274 1.361059 
		CHANNELS 3 Xrotation Zrotation Yrotation
		JOINT rShin
		{
			OFFSET 2.041588 -20.007561 0.000000 
			CHANNELS 3 Xrotation Zrotation Yrotation
			JOINT rFoot
			{
				OFFSET 0.000000 -19.190928 -1.224953 
				CHANNELS 3 Xrotation Yrotation Zrotation
				End Site
				{
					OFFSET 0.000000 -2.449906 4.627600 
				}
			}
		}
	}
}
MOTION
Frames: 18
Frame Time: 0.033333
0.216620 52.789963 0.261614 -6.201172 6.464962 -136.933029 15.281481 -4.119027 1.867324 -9.439031 0.387453 -2.581109 51.562500 8.076172 2.618559 -80.927734 -0.156250 2.324218 6.302941 -10.931771 8.827517 -45.628098 31.895239 19.675308 -64.043259 -1.280683 -2.557003 -14.613997 48.347885 -10.460449 -4.545281 25.000000 15.335602 33.638893 -18.724024 28.159031 77.081085 0.675347 -2.652871 -24.195908 -67.449623 32.777008 -0.029730 3.492908 10.579377 4.966245 -6.296084 -0.835281 -6.249228 4.541616 2.620116 -0.968405 -10.746858 -24.975210 6.219730 5.708202 0.569605 1.570014 -4.540620 10.838817 
0.425636 52.639717 0.545716 -5.478516 5.244140 -136.738281 16.516069 -4.085145 1.775389 -8.902048 -0.118981 -2.145147 51.562500 8.076172 2.618559 -83.701172 0.400391 1.962891 6.150258 -11.301386 8.751413 -46.137947 29.544428 18.666237 -61.934681 -1.246480 -2.595804 -12.638759 44.338818 -7.971031 -5.368773 25.000000 15.533029 34.186680 -16.945232 28.625662 76.908325 0.506203 -2.722078 -24.737055 -67.420624 32.875721 -0.068301 3.097645 10.927636 6.886193 -6.275991 -1.061947 -7.425188 4.354252 2.775574 -1.613384 -12.072524 -25.287407 9.912647 5.635260 0.958537 0.807321 -4.017895 10.705011 
0.628164 52.521099 0.852869 -4.765625 4.199219 -136.581314 17.578781 -4.233272 1.646218 -8.374022 -0.635078 -1.728101 51.562500 8.076172 2.618559 -86.132813 0.771484 1.660288 5.999779 -11.670096 8.686514 -46.959774 27.149357 17.013464 -60.343487 -1.221151 -2.454922 -11.428189 40.807510 -6.053261 -5.831891 25.000000 15.793425 35.196152 -16.137156 27.243801 76.729607 0.669040 -2.664383 -21.917221 -67.767822 30.020546 -0.000330 2.882455 11.263363 8.853086 -6.239066 -1.271187 -8.662125 4.269989 2.990157 -2.306575 -13.547275 -25.599758 13.452310 5.550317 1.503497 0.072591 -3.939430 10.253825 
0.807774 52.402470 1.190585 -4.052734 2.978516 -136.269028 18.814344 -4.359759 1.473061 -7.660253 -1.136945 -1.312706 51.562500 8.076172 2.618559 -88.046875 1.083984 1.357422 5.759912 -11.678046 8.706417 -47.916058 24.718847 15.150088 -59.462322 -1.373348 -2.541595 -10.892608 38.623501 -5.542385 -5.841404 25.000000 15.813788 36.477150 -16.446945 24.300289 76.205353 0.493612 -2.569399 -18.560444 -68.359108 26.763577 0.205032 2.382541 11.259127 10.444196 -5.809481 -1.406923 -9.397693 4.293380 2.562983 -3.184324 -14.705316 -25.333761 16.811378 5.462924 1.854090 -0.208101 -3.652153 10.121627 
1.051594 52.307575 1.544000 -3.349610 1.748047 -136.162109 20.051031 -4.491149 1.318070 -7.125269 -1.476374 -1.228195 51.562500 8.076172 2.618559 -89.638672 1.093750 1.611515 4.960865 -11.556919 8.524640 -49.472084 22.668863 11.924743 -59.286617 -1.370604 -2.543378 -11.135301 37.862343 -6.393952 -5.676415 25.000000 15.674801 38.164978 -16.808210 20.640057 75.668541 0.474259 -2.415980 -12.212067 -68.882019 20.051937 0.312329 2.115881 10.370952 12.032316 -6.179606 -1.610145 -9.777936 4.874657 2.515475 -4.064049 -15.958988 -24.129175 20.162863 5.330445 1.989391 0.430336 -3.988559 10.309122 
1.405048 52.220589 1.943130 -2.822266 0.693359 -135.917984 21.473484 -4.720197 0.917792 -6.418353 -1.635584 -1.281029 51.562500 8.076172 2.618559 -90.878906 1.064453 1.875182 3.914426 -11.452504 8.375232 -51.702435 20.667009 7.372199 -59.641094 -1.180808 -2.286152 -11.896297 38.489868 -7.944095 -5.421510 25.000000 15.648020 40.252071 -16.968775 16.568769 74.962265 0.647265 -2.546798 -6.623331 -69.603470 14.817434 0.263571 1.826139 9.842127 13.277658 -5.987028 -1.550303 -9.499285 5.233237 2.272885 -5.498477 -17.197184 -22.871960 23.851583 5.004169 2.500711 0.989644 -4.510955 10.774687 
1.860420 52.133606 2.365219 -2.119141 -0.351563 -135.517578 23.419266 -4.973708 0.610418 -5.359719 -1.785538 -1.355296 51.562500 8.076172 2.618559 -90.878906 1.064453 1.523619 2.706820 -11.015382 8.106642 -53.987488 17.581778 2.908302 -60.343948 -1.191858 -2.269376 -12.929169 39.356392 -10.028307 -5.421510 25.000000 15.648020 42.569115 -16.199341 11.840422 74.610786 0.641028 -2.558542 -0.367280 -69.806076 8.413967 0.107479 1.733680 9.303801 14.682040 -6.115021 -1.721693 -9.870817 5.666542 1.768284 -7.168370 -17.969395 -21.563433 27.555496 4.836512 2.690410 3.256316 -5.040510 11.502010 
2.278865 52.014973 2.701623 -1.591797 -1.230469 -135.146484 25.199066 -5.227306 0.303973 -4.481058 -1.763157 -1.730686 51.562500 8.076172 2.618559 -88.398438 1.123047 0.117188 1.910402 -10.549961 7.934010 -55.311131 13.528765 -0.818805 -61.398396 -1.198828 -2.239583 -14.200705 40.045776 -12.758245 -5.412522 25.000000 15.628784 44.445950 -14.622828 6.581062 74.430733 0.882016 -2.549674 6.499081 -69.843544 1.097857 -0.213910 1.577511 8.770033 16.086849 -6.082514 -2.061767 -10.005640 5.882365 1.675433 -8.955062 -18.592617 -20.194954 30.540094 4.842578 2.828438 5.135443 -5.555362 12.200088 
2.574953 51.896358 2.807680 -1.240234 -2.109375 -134.609741 26.267775 -5.433000 -0.109802 -3.778153 -1.744669 -1.929184 51.562500 8.076172 2.618559 -83.632813 1.142578 -1.318165 1.817806 -9.491883 8.038451 -54.668823 9.053565 -2.388583 -62.817051 -1.026301 -2.470445 -14.537815 39.648327 -14.725705 -5.557311 25.000000 15.719023 45.863190 -13.392173 0.355740 74.959496 0.803491 -2.478328 11.910736 -69.803688 -5.006149 -0.184334 1.507788 8.076721 16.970783 -6.054935 -2.158740 -10.576630 6.095256 1.532865 -10.106720 -19.301769 -19.285986 33.538860 4.676934 2.932628 7.243907 -5.963184 13.362217 
2.601019 51.825188 2.591570 -0.888672 -2.636719 -133.730469 26.453991 -5.689009 -0.446715 -3.602430 -1.739966 -2.291273 51.562500 8.076172 2.618559 -76.416016 1.005859 -3.027172 2.051050 -8.420148 7.961952 -52.988461 4.568247 -2.374469 -64.925240 -1.090090 -2.432166 -14.914276 38.525486 -17.130714 -5.946948 25.000000 15.840095 46.515686 -13.441470 -6.446536 75.860313 0.126062 -2.698202 17.574432 -69.447105 -11.777380 -0.018512 1.553812 7.206909 17.506659 -6.047995 -2.042017 -10.651053 5.826221 1.025722 -10.448714 -19.526731 -18.674208 35.477211 4.560313 3.266523 9.015719 -6.094801 13.410649 
2.343124 51.920082 2.007778 -0.712891 -2.636719 -132.158203 25.221201 -5.789261 -0.723178 -3.953877 -1.749339 -2.455753 51.562500 8.076172 2.618559 -67.773438 0.957031 -4.882813 2.679950 -7.114026 8.317116 -50.262623 0.741067 -1.563327 -66.522385 -0.765053 -2.389607 -15.606815 37.385635 -19.710747 -6.333523 25.000000 15.936789 46.330963 -14.256481 -13.594169 76.914986 0.135169 -2.653726 23.700846 -69.242149 -18.684629 0.867859 2.087017 6.156778 17.347010 -6.045866 -2.192710 -10.489782 5.316110 0.940705 -9.530840 -19.603745 -19.700541 35.833614 4.540239 3.300719 9.981437 -6.618846 13.425895 
2.044669 52.149422 1.188613 -0.888672 -2.109375 -129.873047 23.456703 -6.028410 -1.165107 -4.476749 -1.929117 -2.658438 51.562500 8.076172 2.618559 -59.306641 0.966797 -6.298828 3.289283 -5.636847 8.603987 -47.039597 -2.719525 0.519159 -68.301727 -0.648577 -2.942172 -15.815043 36.178238 -22.072716 -6.797943 25.000000 16.284622 45.650242 -15.553911 -20.043114 77.979065 0.164077 -2.970884 26.832312 -68.878662 -22.777102 1.120817 3.001534 5.486044 17.513107 -5.792099 -2.164028 -8.858276 3.187025 1.037385 -7.080098 -18.496063 -22.069826 33.900574 4.653028 3.131201 9.611903 -7.854869 13.082127 
1.316677 52.410378 0.153887 -1.240234 -1.054688 -127.070496 20.970188 -6.066652 -1.605412 -5.355564 -1.951501 -2.976408 51.562500 8.076172 2.618559 -52.431641 0.937500 -7.636559 4.145196 -4.144424 8.837684 -43.820820 -6.371899 2.271901 -70.225563 -0.652214 -2.547246 -16.654951 34.486610 -25.032782 -7.599979 24.069670 16.528641 44.323421 -15.245757 -25.862528 79.045967 0.036852 -2.985641 30.569986 -69.233612 -27.768114 2.088612 3.700743 3.574428 15.386913 -5.685133 -1.921546 -7.759444 2.038615 1.278489 -3.653602 -16.831558 -25.274450 30.384890 4.847916 2.991209 7.732074 -9.974230 12.220964 
0.272958 52.655529 -1.039861 -1.582031 0.000000 -124.453125 18.488369 -6.277749 -2.079877 -6.234411 -1.973069 -3.128025 51.562500 8.076172 2.618559 -48.544922 0.966797 -8.974445 4.916030 -2.458102 9.146300 -41.066475 -9.994528 4.866308 -72.161743 -0.510015 -2.563533 -16.508663 32.825027 -27.170748 -8.451028 22.836203 16.973539 42.495014 -13.616823 -31.807207 80.100822 0.036467 -2.942220 33.848190 -70.014252 -32.389023 4.040174 4.499501 1.352977 11.323138 -5.800803 -1.503978 -7.424497 1.985507 1.203983 -1.026438 -17.283373 -27.767998 24.903151 4.954304 2.434225 8.579905 -9.413501 11.271106 
0.298452 52.529003 -2.105417 -2.119140 0.693359 -122.548714 16.011568 -6.539432 -2.357018 -7.109443 -2.159785 -3.308620 51.562500 8.076172 2.618559 -47.470703 1.230469 -10.517368 5.693014 -0.950145 9.428143 -38.408730 -13.596267 7.455894 -74.634995 -0.377744 -2.558339 -16.239649 31.236504 -28.899240 -9.208462 21.481552 17.082087 39.803215 -11.629888 -36.837147 81.334465 -0.126619 -2.937567 36.383533 -70.949432 -35.550282 5.261567 5.769895 0.239187 7.610058 -5.865724 -1.099497 -6.214993 2.191580 1.247432 1.054227 -18.183479 -30.727659 19.270891 5.003067 1.688173 7.610528 -7.610652 9.738901 
-1.205728 52.576458 -3.354921 -3.173828 1.396484 -120.839844 13.701058 -6.784678 -2.619744 -7.812691 -2.175789 -3.460679 51.562500 8.076172 2.618559 -48.691402 1.328125 -12.128679 6.467467 0.564987 9.676282 -36.091114 -17.525240 9.386069 -77.258240 -0.600391 -2.427289 -15.493166 29.286537 -30.437075 -9.747868 19.756386 17.351440 36.340443 -9.844695 -40.604549 82.574493 -0.103915 -3.392367 37.596329 -71.179489 -37.901222 6.733383 5.727343 -3.245912 5.143348 -6.265832 -0.880014 -4.298903 2.275545 0.962267 3.659414 -19.039818 -33.690445 13.252586 5.108398 1.238928 5.716768 -5.699583 8.613828 
-1.696435 52.370842 -4.400486 -4.580078 2.275422 -119.365181 12.273062 -6.720416 -2.752925 -8.340140 -2.187443 -3.437877 51.562500 8.076172 2.618559 -51.523438 1.210938 -13.427529 7.014674 1.892409 10.005323 -34.219193 -21.273359 10.808908 -80.431358 -0.657820 -2.677119 -13.672460 27.551466 -30.898153 -10.075983 17.285631 17.704308 32.214127 -7.972343 -43.869095 83.964638 0.253726 -3.085507 39.026428 -70.462837 -39.703625 7.126932 5.886579 -5.172989 2.498405 -6.303521 -0.596175 -3.913978 2.567031 0.450858 5.855600 -18.786430 -35.978771 7.423079 5.233320 0.829381 3.475852 -4.619268 7.819826 
-1.797936 52.086159 -5.311947 -6.162109 2.968750 -118.095703 11.574030 -6.909889 -2.683116 -8.515960 -2.191261 -3.426998 51.562500 8.076172 2.618559 -55.478516 0.302734 -14.658152 7.555934 3.060913 10.308084 -32.452991 -24.869278 11.183243 -83.965714 -0.195142 -2.870663 -11.954804 25.397444 -31.145075 -9.975907 14.364030 17.817909 28.286188 -5.291161 -46.513451 85.214554 -0.260419 -3.140960 39.861256 -69.035858 -41.364857 6.627851 5.836973 -6.777503 1.269140 -5.994414 -0.415838 -4.645337 2.850653 0.324459 5.911826 -19.047606 -36.891201 7.424061 5.214817 0.828512 2.670676 -4.300043 8.169581 
